<svg xmlns="http://www.w3.org/2000/svg" width="1024" height="1024"><path fill="#EA6753" d="M359.462-.276c4.491.002 8.982-.007 13.473-.014q13.158-.018 26.316-.012 10.712.002 21.424-.005l3.095-.001 6.226-.004q29.121-.014 58.243-.003c17.697.006 35.395-.006 53.092-.025q27.357-.03 54.714-.024c10.213.002 20.425 0 30.638-.014q13.046-.019 26.09-.002c4.423.006 8.846.008 13.269-.005 26.392-.067 52.382.957 78.27 6.635l4.309.92C800.153 18.344 847.349 40.83 889 73l2.762 2.11c6.037 4.705 11.617 9.85 17.203 15.074a220 220 0 0 0 7.223 6.441c6.85 5.94 13.172 12.45 19.054 19.344a155 155 0 0 0 3.766 4.187C985.345 169.981 1013.094 238.261 1022 305l.285 2.13c2.211 17.392 2.01 34.837 1.991 52.332-.002 4.491.007 8.982.014 13.473q.018 13.158.012 26.316-.002 10.712.005 21.424l.001 3.095.004 6.226q.014 29.121.003 58.243c-.006 17.697.006 35.395.025 53.092q.03 27.357.024 54.714c-.002 10.213 0 20.425.014 30.638q.019 13.046.002 26.09c-.006 4.423-.008 8.846.005 13.269.067 26.392-.957 52.382-6.635 78.27l-.92 4.309C1005.656 800.153 983.17 847.349 951 889l-2.11 2.762c-4.705 6.037-9.85 11.617-15.074 17.203a220 220 0 0 0-6.441 7.222c-5.94 6.85-12.45 13.173-19.344 19.055a155 155 0 0 0-4.187 3.766C854.019 985.345 785.739 1013.094 719 1022l-2.13.285c-17.392 2.211-34.837 2.01-52.332 1.991-4.491-.002-8.982.007-13.473.014q-13.158.018-26.316.012-10.712-.002-21.424.005l-3.095.001-6.226.004q-29.121.014-58.243.003c-17.697-.006-35.395.006-53.092.025q-27.357.03-54.714.024c-10.213-.002-20.425 0-30.638.014q-13.046.019-26.09.002c-4.423-.006-8.846-.008-13.269.005-26.392.067-52.382-.957-78.27-6.635l-4.309-.92C223.847 1005.656 176.651 983.17 135 951l-2.762-2.11c-6.037-4.705-11.617-9.85-17.203-15.074a220 220 0 0 0-7.222-6.441c-6.85-5.94-13.173-12.45-19.055-19.344a155 155 0 0 0-3.766-4.187C38.655 854.019 10.906 785.739 2 719l-.285-2.13c-2.211-17.392-2.01-34.837-1.991-52.332.002-4.491-.007-8.982-.014-13.473q-.018-13.158-.012-26.316a25367 25367 0 0 0-.01-30.745q-.014-29.121-.003-58.243c.006-17.697-.006-35.395-.025-53.092q-.03-27.357-.024-54.714c.002-10.213 0-20.425-.014-30.638q-.019-13.046-.002-26.09c.006-4.423.008-8.846-.005-13.269-.067-26.392.957-52.382 6.635-78.27l.92-4.309C18.344 223.847 40.83 176.651 73 135l2.11-2.762c4.705-6.037 9.85-11.617 15.074-17.203a220 220 0 0 0 6.441-7.223c5.94-6.85 12.45-13.172 19.344-19.054a155 155 0 0 0 4.187-3.766C169.981 38.655 238.261 10.906 305 2c1.055-.14 1.055-.14 2.13-.285 17.392-2.211 34.837-2.01 52.332-1.991"/><path fill="#F4E9D8" d="M526.387 190.93c11.585 9.178 14.505 21.838 16.945 35.824l.598 3.294q.628 3.466 1.245 6.935c1.082 6.075 2.191 12.145 3.298 18.216l.66 3.632c1.766 9.704 3.65 19.38 5.617 29.044q.824 4.065 1.645 8.129c.13.65.262 1.3.397 1.969a1997 1997 0 0 1 4.24 21.706q.4 2.101.806 4.202.553 2.88 1.096 5.764l.626 3.292C564 336 564 336 564 342h320c.161 98.471.161 98.471.195 139.566l.025 28.22.003 3.572c.017 19.034.049 38.068.086 57.102q.056 29.3.067 58.6.008 18.08.056 36.16.03 12.398.022 24.796c-.003 4.769.001 9.537.023 14.306q.028 6.553.007 13.106-.003 2.366.016 4.733c.088 11.828-1.215 21.24-9.578 30.085-9.169 8.368-18.292 9.05-30.27 9.021l-4.094.014c-3.74.012-7.481.012-11.222.01-4.039 0-8.077.01-12.115.02q-11.861.023-23.723.023-9.642.001-19.284.012-27.345.026-54.69.025h-5.956c-15.944-.001-31.887.018-47.83.046q-24.562.043-49.126.04c-9.192 0-18.383.006-27.575.027q-11.737.029-23.474.009c-3.991-.006-7.982-.007-11.973.01q-5.485.024-10.97-.004c-1.943-.004-3.885.01-5.828.027-10.803-.086-18.8-3.227-26.792-10.526-9.353-10.023-10.675-20.883-11-34l-1.644.332a4300 4300 0 0 1-33.16 6.57c-24.607 4.755-24.607 4.755-49.127 9.932-7.896 1.734-15.817 3.328-23.745 4.907-16.663 3.319-33.317 6.688-49.971 10.052q-5.984 1.208-11.966 2.414c-27.511 5.504-27.511 5.504-54.943 11.386-12.835 2.861-28.643 5.73-40.444-1.593-11.161-7.402-17.288-16.7-20.116-29.752q-.534-2.655-1.048-5.314l-.585-2.937c-.632-3.185-1.254-6.372-1.876-9.56l-1.343-6.8c-4.857-24.635-9.553-49.302-14.234-73.972a29831 29831 0 0 0-6.322-33.21c-3.743-19.607-7.57-39.18-11.915-58.665-2.6-11.69-4.755-23.438-6.847-35.226-1.476-8.314-3.08-16.594-4.759-24.869a2720 2720 0 0 1-4.77-24.192 5606 5606 0 0 0-8.105-41.058c-3.04-15.12-6.03-30.248-8.856-45.41a2469 2469 0 0 0-6.068-31.328l-1.514-7.604q-1.124-5.656-2.266-11.307c-.713-3.525-1.416-7.05-2.118-10.577l-.646-3.153c-2.572-13.026-4.363-24.129 3.122-35.761 11.256-15.082 28.454-18.946 45.953-22.618l5.402-1.16c14.565-3.115 29.178-5.98 43.803-8.79 9.322-1.792 18.611-3.662 27.874-5.738 10.356-2.295 20.768-4.312 31.171-6.374 14.57-2.89 29.104-5.887 43.605-9.105a1738 1738 0 0 1 27.77-5.895l6.338-1.298 2.17-.444 2.203-.451c32.948-6.75 32.948-6.75 65.79-13.994q5.56-1.26 11.121-2.517 4.386-.993 8.769-1.998c4.186-.957 8.378-1.89 12.572-2.812q2.417-.535 4.829-1.093c18.47-4.266 36.9-6.165 53.283 4.912"/><path fill="#53756D" d="M548 253a94442 94442 0 0 1 132.27-.22l2.809-.003c15.005-.017 30.01-.049 45.014-.086q23.1-.056 46.203-.067 14.25-.008 28.5-.056 9.777-.03 19.554-.022c3.759.003 7.517-.001 11.275-.023 4.082-.023 8.163-.015 12.245-.004l3.57-.035c9.185.066 17.487 1.774 24.872 7.516 20.725 22.481 9.688 52.01 9.688 82H564l-9-48c-3.241-16.957-3.241-16.957-6.5-33.911C548 257 548 257 548 253"/><path fill="#3A4649" d="M397 323c2.952 5.153 4.06 10.11 5.156 15.867l.571 2.886c.6 3.04 1.186 6.08 1.773 9.122q.59 3.007 1.184 6.016c1.443 7.344 2.876 14.69 4.23 22.051l.417 2.26q.54 2.958 1.073 5.916c.452 2.808.452 2.808 1.596 4.882 8.43-.535 16.5-1.977 24.75-3.75l3.81-.801a1650 1650 0 0 0 18.233-3.957l3.155-.7q2.911-.65 5.819-1.318c9.484-2.126 9.484-2.126 13.233-1.474 3.202 3.648 3.887 8.084 4.688 12.75l.381 2.143c.864 5.107 1.378 9.923.931 15.107-2.621 2.621-4.52 2.702-8.15 3.426l-1.927.39c-2.136.432-4.274.853-6.411 1.274l-4.575.92q-4.908.99-9.818 1.967c-5.1 1.017-10.197 2.051-15.292 3.09q-11.932 2.43-23.866 4.846-6.801 1.377-13.601 2.756c-20.296 4.118-40.598 8.191-60.938 12.09a1344 1344 0 0 0-17.797 3.553c-.776.16-1.553.318-2.352.481-3.426.494-3.426.494-6.273 2.207-.565 7.802.402 15.478 1.5 23.188l.434 3.173q.524 3.821 1.066 7.639c11.974-2.036 23.864-4.36 35.746-6.871l5.246-1.102q5.455-1.146 10.909-2.297 6.908-1.457 13.818-2.907a25610 25610 0 0 0 23.072-4.856l2.313-.485a505 505 0 0 0 11.756-2.62l2.418-.564q2.25-.526 4.492-1.08c5.032-1.172 10.065-1.817 15.23-1.218 3.433 2.752 3.654 6.373 4.29 10.578l.316 2.009q.342 2.178.67 4.358c.61 4.027 1.258 8.047 1.908 12.067l.422 2.625c2.149 13.196 4.72 26.318 7.234 39.448 1.879 9.853 3.686 19.698 5.137 29.624.727 4.861 1.806 9.529 3.023 14.291.266 2.898.266 2.898.25 5.375l.016 2.523C468 582 468 582 466 584c-3.285 1.12-6.685 1.832-10.062 2.625l-2.78.695c-5.85 1.393-11.143 2.193-17.158 1.68-2.42-3.63-2.964-7.076-3.734-11.285l-.48-2.535c-.52-2.746-1.028-5.494-1.536-8.242l-1.071-5.696a2173 2173 0 0 1-4.933-27.203l-.407-2.333a1879 1879 0 0 1-1.848-10.779c-1.202-12.23-1.202-12.23-5.991-22.927-6.913-.347-13.023.612-19.75 2.125l-6.41 1.387-3.383.74c-5.873 1.271-11.76 2.475-17.644 3.685l-7.286 1.508q-6.826 1.412-13.654 2.813l-6.085 1.25q-3.844.79-7.687 1.576l-3.484.717-3.075.63c-2.644.547-2.644.547-5.542 1.569l-.272 2.477c-3.362 30.037-8.078 59.805-19.353 88.023l-.84 2.124c-1.606 3.837-3.012 7.052-6.535 9.376-5.442-.071-9.822-1.984-14.625-4.312l-1.945-.897c-3.897-1.849-7.49-3.608-10.43-6.791-.745-5.227.471-8.773 2.625-13.5 6.695-15.625 10.149-32.702 12.375-49.5l.312-2.215c5.164-37.657-.132-75.547-7.237-112.584-2.832-14.828-5.093-29.753-7.447-44.662l-.507-3.204q-.473-2.994-.941-5.988l-.427-2.713-.37-2.357a142 142 0 0 0-.907-4.84c-.645-3.301-.849-6.084-.476-9.437 4.083-3.252 8.76-4.122 13.75-5.187l2.305-.538c5.414-1.188 10.405-1.435 15.945-1.275 2.38 6.468 3.855 12.833 4.973 19.625l.51 2.99c.534 3.128 1.057 6.256 1.58 9.385q.79 4.693 1.59 9.384.493 2.906.978 5.814A287 287 0 0 0 310 412c6.842-.68 13.554-1.728 20.316-2.96l3.2-.58q3.33-.606 6.659-1.216c3.38-.618 6.761-1.224 10.143-1.83q3.25-.592 6.498-1.187l3.038-.54c5.676-1.055 10.805-2.485 16.146-4.687-.406-12.643-2.581-24.783-4.937-37.187q-.816-4.363-1.628-8.725l-1.04-5.568A713 713 0 0 1 365 328c2.663-1.44 4.996-2.339 7.977-2.852l2.27-.39 2.378-.383 2.43-.4c5.712-.893 11.157-1.255 16.945-.975"/><path fill="#D8D0C0" d="M565 343h26c2.25 6.75 2.25 6.75 2.819 9.958.13.728.262 1.455.398 2.205l.412 2.36.455 2.538q.49 2.725.971 5.451c.877 4.95 1.77 9.896 2.66 14.843l.563 3.132c2.055 11.412 4.199 22.806 6.347 34.2a5805 5805 0 0 1 8.2 44.388 2473 2473 0 0 0 4.463 24.017q1.127 5.928 2.265 11.852a939 939 0 0 1 4.356 24.516c1.17 7.097 2.492 14.162 3.841 21.227 5.317 28.111 10.33 56.261 14.853 84.511l.819 5.107.397 2.483a901 901 0 0 0 2.822 16.407c2.985 16.707 6.171 36.837-2.996 52.055-1.444 2.044-2.969 3.893-4.645 5.75l-1.695 1.902c-11.774 12.487-29.424 14.357-45.492 17.535l-5.976 1.2q-5.835 1.174-11.673 2.334-6.225 1.238-12.445 2.513c-11.014 2.25-22.054 4.366-33.107 6.413q-2.208.41-4.416.826-3.084.577-6.173 1.14l-3.596.666c-3.52.484-6.879.553-10.427.471-3.937-7.67-5.584-14.309-5.722-22.83-.034-1.726-.149-3.449-.278-5.17l-2-1 2.905-.547q13.27-2.503 26.538-5.02 5.925-1.127 11.852-2.24c13.81-2.595 27.596-5.29 41.318-8.313 1.932-.425 3.866-.841 5.8-1.257 14.303-3.213 27.193-7.096 35.622-19.81 4.896-9.198 2.897-19.361 1.024-29.106l-.615-3.29c-.662-3.537-1.334-7.07-2.006-10.605q-.698-3.705-1.393-7.41-1.385-7.364-2.78-14.725-1.563-8.249-3.1-16.501a3973 3973 0 0 0-7.794-40.52l-.706-3.574-.716-3.621-1.449-7.336-.722-3.654c-3.766-19.078-7.303-38.185-10.683-57.333C588.194 470.4 586.097 459.7 584 449q-1.399-7.137-2.79-14.274-.576-2.944-1.156-5.886c-1.344-6.892-2.549-13.776-3.52-20.731-.529-3.078-1.258-6.042-2.035-9.063-.788-3.232-1.34-6.495-1.901-9.773l-.374-2.152q-.584-3.372-1.162-6.746-.757-4.427-1.527-8.852l-.378-2.18c-1.024-5.813-2.265-11.557-3.608-17.305C565 349 565 349 565 343"/><path fill="#53756C" d="m752.823 548.823 2.09-.02c2.283-.02 4.566-.031 6.849-.041l2.368-.013q6.21-.03 12.419-.044c4.262-.011 8.524-.046 12.786-.085 3.289-.027 6.577-.035 9.866-.038q2.355-.008 4.71-.035c15.736-.175 15.736-.175 22.089 4.453 3.741 4.57 4.58 8.172 4.502 13.93l.016 2.338a633 633 0 0 1-.022 7.607q0 2.655.005 5.312 0 5.557-.034 11.116a1640 1640 0 0 0-.013 14.223c.007 3.655-.001 7.31-.014 10.964a1087 1087 0 0 0 0 5.243c.002 2.446-.014 4.891-.036 7.337l.014 2.173c-.069 4.64-1.002 7.804-3.418 11.757-4.377 3.967-8.55 4.155-14.222 4.177l-2.218.02c-2.423.02-4.845.031-7.267.041l-2.51.013q-6.575.03-13.15.044c-4.523.011-9.046.046-13.568.085-3.482.027-6.964.035-10.447.038q-2.5.008-5 .035c-2.337.025-4.672.024-7.008.017l-2.074.039c-4.957-.054-7.768-1.337-11.536-4.509-3.314-4.041-3.435-7.87-3.404-12.908l-.02-2.367a830 830 0 0 1-.01-7.721q-.007-2.693-.015-5.384-.014-5.637.003-11.275c.011-4.81-.009-9.618-.038-14.428-.018-3.705-.018-7.41-.012-11.116q0-2.66-.019-5.319c-.015-2.482-.004-4.963.013-7.445l-.029-2.206c.073-5.066 1.38-7.91 4.531-11.831 4.394-3.862 8.093-4.132 13.823-4.177"/><path fill="#52746C" d="M548 253h111l1 2h-3c1.755 3.182 1.755 3.182 4 6q2.992.55 6 1l-3 6-2-1a76 76 0 0 0-5 1v2h-3v2h-2l-1-3c-2.622 1.049-3.794 1.65-5.25 4.125L645 275l-4-2 3-4c-1.375-1.542-1.375-1.542-3-3h-2l1-3-4-1 2 5-3 1v2l-6-1-3 4h2v3h5l-4 2v4l3 1c1.188 2.563 1.188 2.563 2 5h-6c1.839 2.287 1.839 2.287 4.625 2.125L635 290l1 3 2 1 1-7h2l1-2h2l2 6h2v-4h-3v-3h2l-1-8 9 1v-4h4l-2 1v2l6-2v-2h5v3h-2c-1.625 1.458-1.625 1.458-3 3l-2-1 1 3 2.047.402 2.703.536 2.672.527c2.21.459 4.393.968 6.578 1.535l1-5 2 1 1 3h6l1 3-2 3-6-1 2-1c-3.053-.158-3.053-.158-6 1v-2h-4v4l-4-1-1 3-3 1-1-2 2-2v-2l-3-2 1-1-2-1v2c-2-1-2-1-4-3l1 4h-2v3l2 1-3 1 3 1v2l-4 1v-2h-2l-1 3c-3.062 1.188-3.062 1.188-6 2l1 2c-1.977.73-3.98 1.394-6 2l-2-1a140 140 0 0 0-4-1l1 4-7 5c2.055-.514 4.11-1.036 6.125-1.687L635 306l2 2-1 2 3 1 1 8-8 1-2-3 2-2h-2l-1-4h-4l-2 4h5c3.077 5.415 3.077 5.415 2.688 8.375L630 325h4l-.937 2.188c-.989 2.615-1.592 5.063-2.063 7.812h-2l-1 4 5 1c-3.585 2.39-5.143 2.243-9.4 2.227h-1.951a950 950 0 0 1-6.38-.032l-4.426-.008c-3.881-.008-7.763-.028-11.644-.05-3.962-.02-7.923-.03-11.885-.04-7.771-.02-15.543-.055-23.314-.097l-.715-3.82-4.574-24.42a7535 7535 0 0 0-6.847-36.173 4309 4309 0 0 0-1.831-9.512l-.818-4.278-.715-3.708C548 257 548 257 548 253m71 27v2l-4-1-1 3c1.842 2.053 1.842 2.053 4 3l1 2 5-2-1-2h6c-2.2-3.3-2.503-3.428-6.125-4.187zm9-9 4 2-1 2h-2zm49 16 2 1Z"/><path fill="#D7CFBF" d="m657.129 474.846 2.14-.013c2.362-.014 4.723-.02 7.084-.026l5.087-.025c5.56-.026 11.12-.041 16.681-.055l5.747-.017q11.95-.033 23.901-.051 17.12-.023 34.24-.107 12.044-.056 24.087-.063c4.795-.004 9.589-.016 14.384-.048q6.762-.044 13.525-.025 2.481 0 4.961-.025c2.26-.023 4.518-.015 6.778.001l3.83-.01c4.568.824 6.15 2.368 9.426 5.618 2.704 4.056 2.643 7.24 2 12-2.092 4.518-4.24 6.548-8.849 8.4-4.327 1.206-8.742.997-13.203.956l-3.316.007c-3.624.003-7.247-.016-10.87-.035l-7.672-.006q-8.077-.006-16.153-.04c-6.77-.03-13.538-.04-20.308-.045-24.58-.018-49.16-.115-73.734-.69l-2.574-.058c-7.379-.173-14.758-.389-22.127-.836l-2.71-.16c-4.09-.812-6.807-2.853-9.796-5.68-2.223-3.705-2.551-6.591-1.688-10.813 2.37-3.76 4.836-6.406 9.242-7.615 3.322-.464 6.532-.524 9.887-.539M724.122 404.973q22.187-.185 44.376-.26 6.879-.023 13.757-.072 8.19-.056 16.382-.06 3.047-.007 6.095-.034c2.798-.025 5.596-.024 8.394-.017l2.474-.039c5.257.048 8.21 1.054 12.4 4.509 2.283 3.173 3.06 6.49 2.906 10.379-.685 4-1.447 6.138-4.281 9.121-4.526 2.586-8.326 2.627-13.513 2.634l-2.099.007q-3.48.007-6.961.004l-4.993.01q-6.78.014-13.562.012-5.663.002-11.324.008-13.362.012-26.722.01-13.777.001-27.555.026-11.832.019-23.664.018-7.065-.002-14.13.013-6.648.014-13.295.003-2.436-.003-4.873.007c-2.222.008-4.443.003-6.665-.005l-3.764.002c-4.905-.348-9.068-1.039-12.88-4.249-3-3.692-3.148-6.786-3.094-11.45.678-3.687 2.327-5.18 5.156-7.491 6.664-3.05 15.237-2.269 22.418-2.375l3.712-.064c4.123-.068 8.247-.126 12.37-.182l2.155-.03a7725 7725 0 0 1 40.78-.435"/><path fill="#3D5C57" d="M548 253h28c5.115 26.128 5.115 26.128 6.758 37.074.844 5.559 1.785 11.096 2.758 16.633l.413 2.362c.833 4.767.833 4.767 1.679 9.532q.598 3.363 1.185 6.727l.369 2.028c.736 4.259.946 8.326.838 12.644h5c-3.488 2.145-6.244 2.234-10.297 2.195l-3.652-.02-3.801-.05-3.848-.027q-4.701-.036-9.402-.098l-.715-3.82-4.574-24.42a7535 7535 0 0 0-6.847-36.173 4309 4309 0 0 0-1.831-9.512l-.818-4.278-.715-3.708C548 257 548 257 548 253"/><path fill="#D7CFBF" d="M649.848 549.773h3.64l3.93.032 4.023.008c3.526.008 7.052.028 10.579.05 3.6.02 7.199.03 10.798.04q10.591.032 21.182.097c1.152 3.457 1.168 6.233 1.188 9.875l.042 3.68c-.222 3.326-.927 5.426-2.23 8.445q-11.214.106-22.428.155c-3.471.016-6.943.037-10.415.071-3.993.04-7.987.054-11.981.067-1.243.015-2.486.03-3.766.047h-3.518l-3.089.02c-3.878-.498-6.7-1.94-9.115-5.048-1.403-4.716-1.392-8.77.625-13.187 3.202-4.032 5.624-4.373 10.535-4.352M664.86 618.734l3.11-.005q3.236-.003 6.474.01c3.31.011 6.618 0 9.927-.012q3.15 0 6.3.007l3.003-.012 2.782.02 2.446.004C701 619 701 619 704 621c1.071 3.799 1.155 7.695 1.313 11.625l.113 2.79c-.563 3.418-1.769 4.416-4.426 6.585-2.39.501-2.39.501-5.072.502l-3.054.028-3.28-.034-3.385.005q-3.54-.003-7.08-.034c-3.615-.03-7.229-.021-10.844-.008q-3.44-.01-6.879-.025l-3.28.008-3.054-.038-2.682-.016c-2.88-.467-4.262-1.426-6.39-3.388-1.907-4.933-1.414-10.836-.437-15.937 3.863-5.543 13.282-4.353 19.296-4.329"/><path fill="#374346" d="M316 463c2.354 3.53 2.658 6.586 3.125 10.688l.262 2.126q.315 2.592.613 5.186l13-1c-2.918 1.945-4.625 2.453-8 3l1 4c-1.287.39-2.58.761-3.875 1.125l-2.18.633L318 489l-2-2v-3h-2l1 4h-2l-1 3 3 1-3 1 2 2-3 1v2l-3 1h4v2h-7v-2h-2v2l-2-1-1 1c-1.562-1.812-1.562-1.812-3-4l1-3c-2.51.703-2.51.703-5 2-.887 2.041-.887 2.041-1 4l-1-4-3 1-.076 2.58q-.144 4.816-.296 9.633-.065 2.07-.125 4.14c-.243 8.25-.622 16.44-1.503 24.647h-1l.007-1.672q.032-8.69.048-17.377.008-3.234.02-6.468c.013-3.115.018-6.23.023-9.346l.015-2.877c0-5.68-.305-11.254-.888-16.905-.273-2.856-.325-5.676-.288-8.543l.028-2.792L284 470l.313 1.938L285 474l3 1a70 70 0 0 1 1 4l2 1-4 1v2l6-2-2 3c3.074 0 5.98-.45 9-1l1-2-1.875-.875C297 479 297 479 295 477l-1 2v-2h-2l1-2 3 1 .723-1.96C298 472 298 472 300.059 471.46c.785-.027 1.57-.056 2.378-.085 3.55-.152 4.455-.303 7.563-2.375 2.688-.125 2.688-.125 5 0l-1 5h-2c-1.645 2.463-1.645 2.463-3 5l2 2 2-5 2 1v2h3l-.437-1.977c-1.01-4.75-1.82-9.137-1.563-14.023"/><path fill="#3E494C" d="M306 444h5l1 2-4-1v2l4 1v3h-3l2 2-3 1v4h2l1-2v3l-6 3v2l-2 1v3h2l-1-3 5 1 2-3h-3l1-3 3 1 1.375-1.5C315 458 315 458 317 458l-.035 2.055A144 144 0 0 0 318 479h-3l-1-2-3 5-3-4 4-5 2 1v-2l-2-1h3v-2l-2.625.875L309 471l-3.062 1.125c-2.938.875-2.938.875-5.688.813L298 473l-2 3c-2.125.688-2.125.688-4 1h7v3l2 1-2 4v-2l-3 2c-2.324.394-4.658.735-7 1 0-2 0-2 1-3l-4 1v-7l2 1v2l1-1c-.716-2.016-.716-2.016-2-4l-4-1-1-14 3.438-1.375c3.61-1.196 3.61-1.196 4.562-3.625h2l1 2h4l-2-1v-2c1.938.375 1.938.375 4 1l1 2 2.063-3.375 1.16-1.898L304 450l-1-2h2z"/><path fill="#3A4648" d="M482 380c3.202 3.648 3.887 8.084 4.688 12.75l.381 2.143c.864 5.107 1.378 9.923.931 15.107-2.386 2.386-3.72 2.575-6.98 3.29l-3.03.663-3.178.672-3.119.695c-5.338 1.15-10.232 1.974-15.693 1.68l2-1v-3l2.875-.687c3.321-.968 3.321-.968 4.188-3.813L466 406a208 208 0 0 1 5-2c.887-2.041.887-2.041 1-4h-2l.035-2.082c.01-.901.018-1.802.027-2.73l.036-2.708c.012-2.614.012-2.614-1.098-5.48-2.277 2.815-2.277 2.815-2 6h-3v-3l-2-1h2c-.752-3.278-.752-3.278-4-5 2.54-.676 5.081-1.34 7.625-2l2.16-.578c8.14-2.091 8.14-2.091 12.215-1.422"/><path fill="#476B63" d="M832 337v3l2 1c-3.492 1.164-6.215 1.126-9.901 1.127l-2.14.005c-2.375.004-4.749 0-7.123-.003l-5.1.006q-6.945.005-13.888 0c-4.859-.003-9.718 0-14.577 0q-12.27.003-24.54-.005-14.11-.007-28.223.002-12.153.007-24.304.003-7.24-.003-14.48.001c-38.546.023-38.546.023-55.724-1.136v-1h194v-2c2-1 2-1 4-1"/><path fill="#3E4A4D" d="m427 459 6 1v3l-2 1 1.938.375L435 465l1 2-1.875.375c-2.316.497-2.316.497-4.125 2.625l-2-3h-3c1.398 3.545 1.398 3.545 3 7l-2.875.813c-3.378.937-3.378.937-5.125 4.187l-1-1c-2.054.41-2.054.41-4 1l4 2-1 2-3-2-1 3c-3.287.8-4.71 1.097-8 0v2h2l1 3 1 1v3l-2 1 2 2c-9.375 3.125-9.375 3.125-14 2l2-1-1-5 4 2-.625-3.187c-.375-3.81-.091-5.481 1.625-8.813l-2-1v-3l3 3c2.182-.802 2.182-.802 2.688-2.937.523-2.12.523-2.12-.688-4.063l-2-1c1.375-2 1.375-2 3-4h2v4l1-4h2c.981 3.053.981 4.947 0 8l2.313-1.062C416 475 416 475 419 476v-2l4-1-1-5h-3v-2c5.75-1.125 5.75-1.125 8 0l-.562-2.375C426 461 426 461 427 459"/><path fill="#374345" d="M429 554h5l-1 4 6 2 1 5h2c-.75 5.75-.75 5.75-3 8a90 90 0 0 0-1 6h-3l2 8c3.196-.805 3.196-.805 5.438-3.562C445.572 580.456 446.87 581 451 581l1-2 1 2 2-2 6 2v2h2l1-4 3 2v-6h1c.125 3.375.125 3.375 0 7-3.268 3.268-7.65 3.59-12.062 4.625l-2.78.695c-5.85 1.393-11.143 2.193-17.158 1.68-2.148-3.222-2.596-5.25-3.29-9.023l-.663-3.594-.672-3.758-.695-3.734c-1.828-10.029-1.828-10.029-1.68-14.891"/><path fill="#456962" d="M788 623h5l2 4h8l-.625 1.563c-.534 3.47.548 6.143 1.625 9.437l-4-1 1 4h-2l-1 4h2v2l19 1v1h-73v-1l49-1-1-4-2 1v-2l-8-1 1-4h2v-2l-2-1h3l-.562-2.687c-.418-3.165-.246-5.261.562-8.313m7 15v3h2v-3z"/><path fill="#3A4548" d="M452 495c2.712 2.712 2.872 5.56 3.508 9.203l.395 2.168q.411 2.274.811 4.55c.407 2.308.828 4.613 1.25 6.919q.399 2.212.794 4.426l.379 2.074c.683 3.934.986 7.67.863 11.66-2-3-2-3-2-5h-5l-1-3c-2.015-.733-2.015-.733-4-1l1.938-1.812c2.265-2.096 2.265-2.096 3.062-5.188l-1.61.727c-5.767 2.42-5.767 2.42-8.765 1.71-1.863-1.647-2.706-3.14-3.625-5.437l2.438.563L444 518l1-1-1.937-.687C441 515 441 515 440.188 512.563 440 510 440 510 441 507l5 1 1-3 4 3v-2h-2v-2l4 1z"/><path fill="#3F4B4D" d="m362 403 14 1-2 5c2.343-.256 4.678-.593 7-1l1-2 1 2c-.937 2.125-.937 2.125-2 4v-2l-7 1-1 3 2 1h-4l1 3h-4v-2l-4 1-1-3h-4l-1 2-2-1 4 5-2 1v-2l-1.312 1.438C355 422 355 422 352 423l2 2-1 3-7-2 3-1v-5l-1.812.5C345 421 345 421 342 421l3-2.187c2.692-2.186 2.692-2.186 3.375-5.625L348 411c2.762-1.062 3.895-1.036 6.75-.062 2.881.941 4.501 1.178 7.438 1.125C366 412 366 412 369 413c-.833-2.167-.833-2.167-3-3l-3-1 2-3z"/><path fill="#3E4A4C" d="M397 323c2.666 4.554 3.316 7.74 3 13h-3l-3 2c-4 0-4 0-6-1v-7l-3 2 2 2c-1.937-.375-1.937-.375-4-1l-1-2h-5l-1-3c-2-1.209-2-1.209-4-2 8.396-1.88 16.335-3.55 25-3"/><path fill="#364245" d="M303 537h3v4l2.813.438C312 542 312 542 315 543c-.375 2.438-.375 2.438-1 5l-2 1 3 3 1-6h1c-.24 11.727-3.09 22.698-6 34-1.015-3.175-.945-5.309-.223-8.547l.557-2.558.603-2.645.592-2.691q.724-3.282 1.471-6.559l-6 1-1 3-1-5h-6v-1l2.938-.375L306 554l1-2-3 1-3-2-1.75 1.063c-2.608 1.086-3.644.868-6.25-.063l2-2a89 89 0 0 0 2-4l2 3v-2c5.75.875 5.75.875 8 2l1-2 3-1-2.25-.437c-2.27-.465-4.508-.982-6.75-1.563l.5-1.812c.611-2.301.611-2.301.5-5.188"/><path fill="#3B605A" d="M735 561h1l1 75h3v-2l9 1 1-2 2 4-2 1v6l-1.687-.5c-2.5-.54-4.763-.57-7.313-.5v3l4 2c-3.578-.298-4.762-.742-7.25-3.437-2.847-4.17-2.888-7.116-2.864-12.042v-2.336c0-2.554.009-5.108.016-7.662l.005-5.305q.006-6.989.024-13.977.014-7.128.02-14.257.016-13.992.049-27.984"/><path fill="#273438" d="m284 470 .313 1.938L285 474l3 1a70 70 0 0 1 1 4l2 1-4 1v2l6-2-2 3h-2v3h3c1.125 3.75 1.125 3.75 0 6h3v-2l5 1c-2 2-2 2-4.562 2.875-2.622.866-2.622.866-3.25 3.25L292 500l-1-4-3 1-.076 2.58q-.144 4.816-.296 9.633-.065 2.07-.125 4.14c-.243 8.25-.622 16.44-1.503 24.647h-1l.007-1.672q.032-8.69.048-17.377.008-3.234.02-6.468c.013-3.115.018-6.23.023-9.346l.015-2.877c0-5.68-.305-11.254-.888-16.905-.273-2.856-.325-5.676-.288-8.543l.028-2.792zm15 19 2 2h-2z"/><path fill="#3E4A4C" d="M295 350c2.125.938 2.125.938 4 2l-.29 2.012c-.631 5.036-.918 8.313 1.29 12.988.125 3.313.125 3.313 0 6l-3-1v2l2 1-1.875-.5c-2.086-.576-2.086-.576-4.125-.5l.5-1.75c.645-2.517.645-2.517.5-6.25v-2c-1.448-1.448-3.04-1.557-5-2l-1 2c-2-1-2-1-3-4l-4 1v-4h2c1.333-3 1.333-3 0-6l6 2-1 6c2.51-.703 2.51-.703 5-2 .986-1.943.986-1.943 1-4l-1-2z"/><path fill="#446861" d="M828 559h2q.07 15.542.104 31.085.014 7.216.047 14.434.032 6.963.039 13.927.005 2.658.021 5.315c.015 2.48.017 4.96.016 7.441l.022 2.223c-.015 3.69-.206 6.44-2.249 9.575-2-3-2-3-3-6l3-1c-.114-1.46-.242-2.917-.375-4.375-.07-.812-.14-1.624-.21-2.46-.244-2.368-.244-2.368-2.415-4.165h3z"/><path fill="#333F42" d="M356 427c2 2 2 2 2 6l2-2h3l1-2 4 3-4 2v2c-13.184 2.93-13.184 2.93-15.584 3.46q-2.45.548-4.897 1.115l-2.394.55-2.145.5c-2.679.507-5.264.514-7.98.375 2.414-1.3 4.432-2.104 7.125-2.75 3.163-.976 3.163-.976 4.063-4.187L343 432c1.5-1.875 1.5-1.875 3-3h2v2l2 1 1-2 5 1-1-3z"/><path fill="#3E4A4C" d="m382 358 10 4 2-2c.553 2.076 1 3.844 1 6h2v4l2-1v2l4 1-2 4-7-1v3l-3-1c-2.333-.04-4.667-.044-7 0v-2h2c-.833-2.167-.833-2.167-3-3l3-1v-2h4l-.562-1.875C389 365 389 365 390 363h-4l-1 2-2-2h2v-2h-2z"/><path fill="#3B4749" d="m412 410 8 2v4l-3 1c3 1.333 3 1.333 6 0l2 4-6 1v-2l-4-1v4h10c-5.498 3.665-12.472 4.344-19 4l4-3-5-2 .875-1.625c1.292-2.728 2.21-5.501 3.125-8.375h3z"/><path fill="#394547" d="M467 575h1c.125 3.375.125 3.375 0 7-3.268 3.268-7.65 3.59-12.062 4.625l-2.78.695c-5.85 1.393-11.143 2.193-17.158 1.68-2.29-3.435-2.178-4.985-2-9 1.206 2.332 2.165 4.496 3 7 3.196-.805 3.196-.805 5.438-3.562C445.572 580.456 446.87 581 451 581l1-2 1 2 2-2 6 2v2h2l1-4 3 2z"/><path fill="#384447" d="m386 422 6 2-1 3h-2v2h6c-2.332 2.332-3.396 2.469-6.578 3.07l-2.77.528-2.902.527-2.855.55c-4.689.875-9.103 1.566-13.895 1.325l3-1 1-6 2 1v-3l1-2h2l1 2c3.992 1.33 6.263.815 10-1z"/><path fill="#333F42" d="M284 539h1v8h5v1h-6v9l4 2v3l2 1-1.562 1.188L287 566c.337 2.516.337 2.516 1 5l-1 3-3 1-1-3c-2.015-.733-2.015-.733-4-1 .6-7.302 1.703-14.429 3.063-21.625l.564-3.043q.681-3.668 1.373-7.332"/><path fill="#344043" d="m345 496 6 2 1-2 1 2 3 2c.688 2.625.688 2.625 1 5l5 1c-2.84 1.893-4.255 2.427-7.492 3.07l-2.637.528-2.746.527c-.898.182-1.797.364-2.723.55-4.217.83-8.089 1.423-12.402 1.325l2-4 5 2-1-3h2l1 1v-5h7v-2l-2-1v2l-4-1z"/><path fill="#364245" d="m267 366 1 2h2l1-2 1 7h3l1 2 5-2 1 3-5 1c-.714 2.468-.714 2.468-1 5h2l-1 4-2.375-.187L272 386l-2 3q-.758-4.061-1.5-8.125l-.434-2.305c-.77-4.25-1.232-8.229-1.066-12.57"/><path fill="#374345" d="m459 385-2 1v3h-2v4l2 1-2 2-.312-1.937L454 392l-3-1-1 2 3 2h-2v2l-5-2-1 3h-2v2l-3-1 2-4h2v-2l-2-1 4-2-4-2c11.522-3.444 11.522-3.444 17-3"/><path fill="#3C484A" d="m422 496 2 1 3 1 2-2h4c-1 3-1 3-2 4l-1 3 3 1-1 3h-13c-.293-6.836-.293-6.836 0-9z"/><path fill="#303C3F" d="M396 487c1.617 2.628 2 3.974 1.938 7.125L398 497l3 2c-6.155 1.447-12.312 2.888-18.5 4.188l-2.281.48c-2.434.364-4.761.388-7.219.332l4-4v2l7-1v-2l1.813-.312c3.375-1.061 4.713-2.815 6.375-5.875L393 491h3l-3-2z"/><path fill="#424E50" d="M297 396c7.75-.125 7.75-.125 10 1l-1 9h-2l1 5-6 3 1-4h-4l-1 2a78 78 0 0 1-5 2l1-6 1.75-.25c2.858-.953 4.18-2.61 6.25-4.75h2v4h2v-7h-3v-2l-3 1z"/><path fill="#364245" d="M487 403h1c.125 3.375.125 3.375 0 7-2.241 2.241-3.153 2.44-6.176 3.07l-2.51.528-2.627.527-2.591.55c-4.08.841-7.907 1.584-12.096 1.325v-3l2.875.063c3.032.163 3.032.163 5.125-1.063q3.495-.543 7-1l-5 1c0-3 0-3 1.5-4.687L475 406l3 2v2h2l1-5 5 1z"/><path fill="#46776F" d="M768 254v1c-24.39.834-48.615 1.096-73 0v-1c24.413-.822 48.593-1.36 73 0"/><path fill="#313D40" d="m271 390 3 1 1 5 7-1-1 2h-2c1.448 1.448 3.04 1.557 5 2v2h-3l2 1v2l-1.75-.562c-2.457-.478-3.894-.195-6.25.562l-1 5h-1c-1.512-6.468-2.214-12.356-2-19M304 584h3l-1 2zm5-3c1.755 4.138.09 7.693-1.312 11.688l-.686 2.087c-1.738 5.093-1.738 5.093-4.002 6.225l2-8-3 1v5l-4-1c-1.125-5.625-1.125-5.625 0-9 1.938-2.187 1.938-2.187 4-4h2v3l3-1c1.225-3.008 1.225-3.008 2-6"/><path fill="#354143" d="M453 517h4q.76 3.06 1.5 6.125l.844 3.445c.62 3.245.776 6.138.656 9.43-2-3-2-3-2-5h-5l-1-3c-2.015-.733-2.015-.733-4-1l1.875-1.812c2.262-2.196 2.262-2.196 4.125-5.188z"/><path fill="#333F42" d="m440 522 2 1c-.301 3.613-.709 4.745-3.5 7.188L436 532l-1 2-4-1 3 4-4 2-1-1-3 3-1-10h3q3.005-.47 6-1v-3h4v-2l2-1z"/><path fill="#414D4F" d="m407 414 2 1-2 6 3 2 3 2c-7.958 3.226-7.958 3.226-13 2l.5-1.75c.673-3.03.913-5.425-.5-8.25l1-2 6 1z"/><path fill="#2B383B" d="M367 334c2.762 2.762 2.579 5.207 3 9 2.075.15 2.075.15 4-1v5h2v2l-4-1c-.332 3.003-.332 3.003 1.5 4.688L375 354l-3 1v4h2v-2h3v2l-4 1v5c-1.593-2.906-2.448-5.524-3.07-8.773l-.528-2.75-.527-2.852-.55-2.828c-.878-4.659-1.564-9.032-1.325-13.797"/><path fill="#303D40" d="M449 474h1c2.296 13.633 2.296 13.633 2 20-1.562-1.187-1.562-1.187-3-3 .313-2.687.313-2.687 1-5-2.468 1.152-4.048 2.048-6 4h-2l-1-7c2.647-1.46 3.894-2 7-2zm-10 15 3 1-1 3z"/><path fill="#3E4A4C" d="m460 571 2 4c2.867-.573 3.861-.861 6-3l-1 9-3-1-1 3h-2l-1-2-2-.437-2-.563-1-3c2.333-4.667 2.333-4.667 5-6"/><path fill="#303D40" d="m316 445 2 1-1 1c-.235 2.35-.414 4.706-.562 7.063l-.254 3.91L316 461l-2-2-3 3v-2l-3 3h3l-2 4-4-1v2h-2l-1-4h3l-1-3c2.647-1.46 3.894-2 7-2v-5l1 2h3l-.625-3.812c-.588-3.59-.541-3.939 1.625-7.188"/><path fill="#364345" d="m429 460-3 1 1 5c-5.75 1.125-5.75 1.125-8 0v2h3l1 5-4-1-.375-1.937L418 468l-2-1v-5c8.429-2.286 8.429-2.286 13-2"/><path fill="#313D40" d="M306 401c2.313 2.313 2.496 3.479 3.125 6.625l.508 2.477L310 412l6 1v1l-3.812.563-2.145.316C308 415 308 415 305 414l-2 2c-2.125-.375-2.125-.375-4-1l1-3h2l1-2 2 1v-2l-2-1 1-2h2z"/><path fill="#323E41" d="M464 560c2.52 4.87 3.104 8.49 3 14l-6 2-1-4h-6c1-1.5 1-1.5 3-3 2.718-.273 5.257-.135 8 0l-3-1 1-3c.348-1.664.684-3.33 1-5"/><path fill="#2D393D" d="m451 579 1 3c-1.255 2.51-2.5 2.871-5 4l4 1c-4.819 1.977-9.825 2.962-15 2-2.29-3.435-2.178-4.985-2-9 1.206 2.332 2.165 4.496 3 7 3.196-.805 3.196-.805 5.438-3.562C445.572 580.456 446.87 581 451 581z"/><path fill="#223034" d="M316 546h1c-.24 11.727-3.09 22.698-6 34-1.015-3.175-.945-5.309-.223-8.547l.557-2.558.603-2.645.592-2.691q.724-3.282 1.471-6.559l-6 1-1 3-1-3c1.75-2 1.75-2 4-4h4z"/><path fill="#2D393C" d="m297 607 3 2c-.337 3.03-.89 4.84-2.625 7.375C295 618 295 618 291.625 617.938c-3.551-.919-6.434-2.148-9.625-3.938 3-1 3-1 6 .063l3 .937c3.48-2.32 4.294-4.264 6-8"/><path fill="#303D40" d="m376 362 3 1v2l3-1c-.645 3.483-1.982 6.094-4 9h-2l-2 3-1-10h2z"/><path fill="#4D6E67" d="m746 638-2 1 3 2-1 2h-5v3l4 2c-3.554-.296-4.803-.803-7.375-3.375L736 642c1-3 1-3 2.75-4.25 2.777-.926 4.466-.523 7.25.25"/><path fill="#2F3B3F" d="M280 444c2.29 3.435 2.178 4.985 2 9h8l-1 5-7 2c-1.19-5.38-2.292-10.453-2-16"/><path fill="#3F4B4D" d="M324 410h10l-1 3h-2l2.375 2.375L338 420h-2v2h-7l1-3c-.238-2.118-.238-2.118-1-4l-2-1v-3z"/><path fill="#2F3B3E" d="m266 354 2 1h2c2 1 2 1 4 4h-2v3l3 1-1 3-1.312-1.5c-1.685-1.832-1.685-1.832-4.688-1.5l-2 2c-1.165-3.494-1.136-6.337-1-10z"/><path fill="#424E50" d="m377 354 3 1-1 5 2 1v4h-2l-2-2-2 5h-3l1-8 4-1-1-3z"/><path fill="#3F4B4D" d="M267 353c7.459-.367 7.459-.367 9.938 1.313C278 356 278 356 279 359l-2 2-2 3c-3-2-3-2-3.687-5.125L271 356h-3l-1 2z"/><path fill="#44635D" d="m560 260 3 2-3 1-.312 2.375C559 268 559 268 556 270c-3.187-.375-3.187-.375-6-1v-3l4-1h-3l1-4 3 2z"/><path fill="#325551" d="M595 340c-3.318 1.99-5.8 2.236-9.64 2.195l-3.243-.02-3.367-.05-3.414-.027q-4.168-.036-8.336-.098v-2c9.568-.945 18.432-.945 28 0"/><path fill="#404C4E" d="M377 346h6v3h-4v4l-5 1v-2l-3-1 1-4 4 2z"/><path fill="#2D393D" d="m387 324-2 1.313-2 1.687v3l2 1 2 3c-1.937-.375-1.937-.375-4-1l-1-2h-5l-1-3c-2-1.209-2-1.209-4-2q2.342-.508 4.688-1l2.636-.562c2.613-.428 5.034-.514 7.676-.438"/><path fill="#3E4A4D" d="M383 484h2v3l3-1v5h-2v-2h-2v6l-6 2-1-4h3c1.106-2.39 1.106-2.39 2-5l-1-2 2-1z"/><path fill="#344043" d="M443 494v4h2l1-2 2 1c.625 2.063.625 2.063 1 4l-4 1v3h-2v-3l-4-1 2-2-3-3c3-2 3-2 5-2"/><path fill="#3F4A4C" d="M300 374h3c-.312 1.938-.312 1.938-1 4l-3 1-1 8h-2l-2-2h-2l1-3h2l-1-3 4-3 2 1z"/><path fill="#313D40" d="M427 542c3.167 1.584 4.733 2.453 6.313 5.688L434 550c-2 2-2 2-4 3-2-1-2-1-3-4-.04-2.333-.044-4.667 0-7"/><path fill="#29363A" d="m410 419 1.875 2c4.367 2.795 8.077 2.353 13.125 2-5.498 3.665-12.472 4.344-19 4l4-3-3-2z"/><path fill="#344043" d="m362 496 5 4-1 1 3 3h-2v2l-1.75-.5c-2.517-.645-2.517-.645-6.25-.5l-2-2 2-2h3z"/><path fill="#2D3A3D" d="M277 428c2.938.75 2.938.75 6 2 .875 2.125.875 2.125 1 4h-3v2l2 1-2 1c-1.134 2.017-1.134 2.017-2 4-1.336-4.842-2.253-8.934-2-14"/><path fill="#455051" d="m316 513 1 2 5-1c-.352 5.461-.352 5.461-1 8-2.062 1.5-2.062 1.5-4 2-1.43-2.354-2.087-3.48-1.625-6.25L316 516l-3-1h3z"/><path fill="#333F42" d="M401 342c2.152 3.228 2.2 4.284 2 8l-2-4h-2l2 2v3h-4v-2h-2v-2h-2v-2c2.639-1.414 5.071-2.372 8-3"/><path fill="#344043" d="m436 416 4 5c-4.842 1.336-8.934 2.253-14 2l3-1c.733-2.015.733-2.015 1-4 3.75-1.125 3.75-1.125 6 0z"/><path fill="#414C4E" d="M276 415c3 1 3 1 4.688 3.938C282 422 282 422 282 424c-4.75 1.125-4.75 1.125-7 0z"/><path fill="#3D494B" d="M482 388h2v8h-2v-2h-5v-2l-2-1-1-2 3.438.063c3.378.353 3.378.353 4.562-1.063"/><path fill="#414D4F" d="m278 402 5 2-2 5-6-4v2l3 1v3l-3 1-2-1 1-8 4 1z"/><path fill="#243135" d="m284 470 .313 1.938L285 474l3 1a70 70 0 0 1 1 4l2 1-4 1-1 8h-1c-.962-6.374-1.107-12.56-1-19"/><path fill="#414C4E" d="M424 391c2.729.033 5.297.564 8 1l-2 2.938c-2.091 2.592-2.091 2.592-2 4.062h-6l3-3-3-3z"/><path fill="#283539" d="m267 366 1 2h2l1-2q.57 3.49 1 7l-1 1a70 70 0 0 0-.562 4.063L270 382c-2.032-3.404-2.369-6.323-2.625-10.25l-.227-3.266z"/><path fill="#2D3B3E" d="M377 390h1v7l6 2-1 3c-2.915.81-4.461 1.218-7.312.063L374 401l2-2c.46-2.203.46-2.203.625-4.625l.227-2.477z"/><path fill="#364245" d="M419 477c2 2 2 2 2 5l2 1v2l-3 1v-2l-4 1-1-4h3l-4-2v-1c2.375-.625 2.375-.625 5-1"/><path fill="#2B383B" d="M271 594c1.326 4.145 1.984 9.032 0 13l-3-1c-.295-5.023.015-7.895 3-12"/><path fill="#374346" d="M292.25 526.938 294 528l-4 4 2 1-3 1-2 2-1-9c4-1 4-1 6.25-.062"/><path fill="#233034" d="m370 428 2 1v3l13-1c-5.498 3.665-12.472 4.344-19 4l3-1z"/><path fill="#2A363A" d="M388 323a196 196 0 0 1 4.375-.187l2.46-.106L397 323c2 3 2 3 1.625 5.188L398 330v-3h-4v3l-2-1v-4z"/><path fill="#273437" d="M467 575h1c.125 3.375.125 3.375 0 7-2 2-2 2-5.125 2.125L460 584v-2l-3 1-1-3 5 1v2h2l1-4 3 2z"/><path fill="#444F50" d="m433 559 2 2-2 6 2 1c.75 3.438.75 3.438 1 7l-2 2-.621-2.3-.817-3.013-.808-2.988A121 121 0 0 0 430 563c1.438-2.187 1.438-2.187 3-4"/><path fill="#354043" d="M439 517c4.875.875 4.875.875 6 2 2.67.141 5.324.042 8 0-2.848 2.848-5.994 3.762-10 4-2.5-1.75-2.5-1.75-4-4z"/><path fill="#2A373A" d="M333 480c-2.918 1.945-4.625 2.453-8 3l1 4h-4v-2l-3-1h2l-1-3c4.386-.702 8.558-1.108 13-1"/><path fill="#2C393C" d="m363 429 5 2c-5.76 5.958-5.76 5.958-10.687 6.125L354 437l1.875-.75c2.476-1.456 3.076-2.628 4.125-5.25h3z"/><path fill="#283538" d="M298 355c2.668 2.668 2.596 4.606 3.125 8.313l.508 3.425c.315 2.796.44 5.454.367 8.262-2.378-3.567-2.387-5.872-2.656-10.04L299 363l-2-1z"/><path fill="#404C4E" d="M302 593h3c-.06 1.626-.149 3.251-.25 4.875l-.14 2.742C304 603 304 603 301.952 604.32L300 605l-.437-1.875c-.495-2.158-.495-2.158-1.563-4.125h4l-.562-2.437L301 594z"/><path fill="#3F4B4C" d="M383 469v3h-2v2h2l-1 3c-2.629-1.522-4.844-2.844-7-5 1-2 1-2 2.875-2.625C380 469 380 469 383 469"/><path fill="#404C4E" d="M475 382h9c-.687 2.438-.687 2.438-2 5-2.625.813-2.625.813-5 1l1-5z"/><path fill="#333F41" d="m406 367 2 1v8l-2-4-4 4c-1-3-1-3-1-6h3l1-2z"/><path fill="#344043" d="m396 356-2 2 2 3h-2l-2 3v-2l-4-2v-2c4.39-3.203 4.39-3.203 8-2"/><path fill="#334D4B" d="m554 282 3 1c1.292 3.134.955 5.938.563 9.25l-.31 2.703L557 297c-3.35-5.024-3.098-9.1-3-15"/><path fill="#2D3A3D" d="M429 554h5l-1 4 3 1-1.875.875c-2.258 1.062-2.258 1.062-4.125 3.125z"/><path fill="#465152" d="M421 502h3v2l6 1-1 2h-10c1-4 1-4 2-5"/><path fill="#424D4F" d="m394 466 4 1v1l6 1-2 3-2.812-.625c-3.34-.742-3.34-.742-6.188 1.625l-1-2h2z"/><path fill="#243236" d="m444 458 3 1c1.809 4.76 2.207 8.937 2 14l-.375-1.937L448 469l-2-1 1-5h-4z"/><path fill="#313C3F" d="M288 348h9l1 5-3-2h-2l-1 2-4-2h2v-2z"/><path fill="#444F51" d="m456 411 3 2-1 5-8-1 3-1a70 70 0 0 0 1-4z"/><path fill="#202E32" d="m471.504 411.902 3.058.036 3.067.027L480 412c-5.497 2.967-11.744 4.404-18 4v-3c1.454.03 1.454.03 2.938.063 3.382-.07 3.388-1.037 6.566-1.16"/><path fill="#434E50" d="m435 579 1.438 1.938c1.4 1.945 1.4 1.945 2.562 3.062 2.054-.41 2.054-.41 4-1l-2 5-5-1z"/><path fill="#404C4F" d="m442 572 1 3 2 1v4c-3 2-3 2-7 2v-2l5-1v-2l-2-1z"/><path fill="#3D494C" d="M297.188 487.375 299 488v3h-4v2l-5 1c2.54-7.422 2.54-7.422 7.188-6.625"/><path fill="#29363A" d="m429 460-3 1 1 5-6 1v-6c2.928-.976 4.956-1.082 8-1"/><path fill="#253337" d="M487 403h1c.125 3.375.125 3.375 0 7-2 2-2 2-4.625 2.125L481 412l3-1-1-6 3 1z"/><path fill="#29363A" d="M425 392v3l1 2-5 1v-4h-8v-1c4.064-.774 7.864-1.098 12-1"/><path fill="#202D32" d="M340 507h2v2h6c-3.12 1.793-5.677 2.343-9.25 2.625l-2.703.227L334 512l2-4 5 2z"/><path fill="#374345" d="M373 424h2c1 2 1 2 2 5-.937 2.188-.937 2.188-2 4l-2-1c-1.275-5.45-1.275-5.45 0-8"/><path fill="#434F50" d="M304 386c1 3 1 3 .375 5.063-1.777 2.504-3.495 3.027-6.375 3.937 0-3 0-3 1-5l4-2z"/><path fill="#434E50" d="M427 517c0 3 0 3-2 6l3 1-3 4-2-1 1-9z"/><path fill="#2E3A3E" d="m449 388 2 1c-.312 1.938-.312 1.938-1 4l-3 1-.25-1.875c-.563-2.31-.563-2.31-2.812-3.375L442 388c3.167-1.056 3.964-.98 7 0"/><path fill="#455052" d="m355 502 3 1h2a449 449 0 0 1 6 1l-1 3c-5.461-.352-5.461-.352-8-1-1.5-2.062-1.5-2.062-2-4"/><path fill="#313D3F" d="M362 474v3l-8 1v-3c2.709-1.354 5.01-1.065 8-1"/><path fill="#D1C9B9" d="m769 405 1 2a91 91 0 0 1-4 4h-2l1-3-10-1v-1z"/><path fill="#3C484A" d="m387 323 3 1c-.812 1.938-.812 1.938-2 4-3.766 1.255-5.372.37-9-1v-1l8-1z"/><path fill="#F5EFE4" d="m140 263 2 1a991 991 0 0 1-3.375 4.438l-1.898 2.496C135 273 135 273 133 274c1.486-4.593 3.85-7.436 7-11"/><path fill="#343F42" d="m353 490 8 1 1 3-7 1z"/><path fill="#434E50" d="M413 462h3v3l2 1v2l1 3-4-1v-2h-2l.563-1.875c.674-2.167.674-2.167-.563-4.125"/><path fill="#E8E1D2" d="M431 424v2l-9 1v-3c3.378-.845 5.675-1.108 9 0"/><path fill="#3E4B4D" d="m324 416 1 2c2.025.652 2.025.652 4 1l-3 1 1 2-4 1v-2l-2-1-1 2 1-4h3z"/><path fill="#485254" d="M340 407h3v3l-3 2 2 1v-2l4 2-7 1c-.625-1.812-.625-1.812-1-4z"/><path fill="#253235" d="m440 389-2 1v3h-2v-2l-10 1c5.087-2.544 8.324-3.129 14-3"/><path fill="#2C383C" d="m280 351-2 1c-.652 2.025-.652 2.025-1 4l-2.312-.937A111 111 0 0 0 269 353c3.823-1.423 6.913-2.24 11-2"/><path fill="#2E3A3D" d="M453 517h4c1.478 2.957 1.06 5.742 1 9l-1-3h-2z"/><path fill="#3F4B4D" d="m375 371 1 2c2.025.652 2.025.652 4 1l-1 2h-2v5c-1.562-1.062-1.562-1.062-3-3 .313-3.687.313-3.687 1-7"/><path fill="#45635D" d="m559 304 1 2h2l2 4-6 1zm3 1 2 1Z"/><path fill="#293639" d="M454 506c2.43 3.644 2.162 5.712 2 10l-1-3-6 1v-2l4-1z"/><path fill="#454F51" d="M351 432c1.5 1.375 1.5 1.375 3 3v2l3 1-8-1c0-3 0-3 2-5"/><path fill="#455051" d="m392 424 6 6-9-1v-4z"/><path fill="#303C3F" d="m485 393 2 1v8l-2-2-3-1z"/><path fill="#233035" d="M408 377c2.326 3.634 2.163 6.77 2 11l-2-3-2 1-1-4 2-1c.652-2.025.652-2.025 1-4"/><path fill="#5C7971" d="M576 255h9l-1 4v-2c-3.61.656-3.61.656-7 2z"/><path fill="#4E6E67" d="m824 553 4 2-1 3-1-1-1.375 1.5C823 560 823 560 821 560v-2l2-1c.652-2.025.652-2.025 1-4"/><path fill="#455051" d="m432 550 3 1-1 4h-6v-3l3-1z"/><path fill="#3F4A4D" d="M441 541h3l-1 4-2.375.438c-2.59.44-2.59.44-4.625 1.562l-1-4c3-1 3-1 6 0z"/><path fill="#404C4E" d="M298 514c2.972 1.125 5.334 2.223 8 4h-4l-2 3-2-1z"/><path fill="#2C393C" d="m396 467-2 1-1 2a113 113 0 0 1-5 3v-5c2.709-1.354 5.01-1.065 8-1"/><path fill="#273539" d="M304 389c2.326 3.634 2.163 6.77 2 11l-1-4-4-1z"/><path fill="#E9DFCF" d="M321 530h1c.268 8.036.268 8.036-2 12a340 340 0 0 1-.625-4.875l-.352-2.742L319 532z"/><path fill="#354144" d="M292 425c3.006 1.002 4.062 1.6 6 4v3c-1.875-.125-1.875-.125-4-1-1.25-3.062-1.25-3.062-2-6"/><path fill="#2A363A" d="m473 382-2 5c-2.993-.998-3.948-1.752-6-4 2.709-1.354 5.01-1.065 8-1"/><path fill="#404B4D" d="M274 608h6v2h2v2l-8-1z"/><path fill="#414C4E" d="m451 582 1 2 2 1h-2l-1 2h-7l1-2c3.063-.625 3.063-.625 6-1z"/><path fill="#40655E" d="m740 552 2 1c-1.393 3.367-2.979 4.986-6 7 .498-3.688 1.1-5.605 4-8"/><path fill="#444F50" d="M400 344c2.063 1.75 2.063 1.75 4 4-.25 2.25-.25 2.25-1 4l-2-1v-3l-3-1z"/><path fill="#344043" d="M302 529h6l-1 5-3-1v-2h-2z"/><path fill="#445051" d="m330 481 1 3-2 2v-3h-2v2l-5-1c2.918-1.945 4.625-2.453 8-3"/><path fill="#374346" d="m313 476 2 1v2l4 1-3 2-4-4z"/><path fill="#313E41" d="M383 469h4v2h-2v3h-4v-2h2z"/><path fill="#444F51" d="m485 399 3 2-1 8c-1.562-1.625-1.562-1.625-3-4 .313-3.25.313-3.25 1-6"/><path fill="#2D393C" d="m297 607 3 2c-.375 2.438-.375 2.438-1 5l-2 1c-1-3-1-3-1-6z"/><path fill="#414D4F" d="m303 564 4 2v2l3 1-4 1-1-3-3-2z"/><path fill="#374345" d="M312.563 468.938 315 469l-1 5-3-1v-2l-2-1c1-1 1-1 3.563-1.062"/><path fill="#2F3B3F" d="M326 437h5l-3 1v3l2 2h-4c-1-3-1-3 0-6"/><path fill="#263337" d="M436 418c2.125.938 2.125.938 4 2-3.435 2.29-4.985 2.178-9 2l3-1v-2z"/><path fill="#344042" d="M386 363h4v6l-2-2a89 89 0 0 0-4-2h2z"/><path fill="#4E6A63" d="M560 280v2h-4l-1 2-2 1v-4c2.463-1.231 4.28-1.072 7-1"/></svg>